HIERARCHY
ROOT hip
{
  OFFSET 0 0 0
  CHANNELS 6 Xposition Yposition Zposition Zrotation Yrotation Xrotation
  JOINT abdomen
  {
    OFFSET 0 20.6881 -0.73152
    CHANNELS 3 Zrotation Xrotation Yrotation
    JOINT chest
    {
      OFFSET 0 11.7043 -0.48768
      CHANNELS 3 Zrotation Xrotation Yrotation
      JOINT neck
      {
        OFFSET 0 22.1894 -2.19456
        CHANNELS 3 Zrotation Xrotation Yrotation
        JOINT head
        {
          OFFSET -0.24384 7.07133 1.2192
          CHANNELS 3 Zrotation Xrotation Yrotation
          JOINT leftEye
          {
            OFFSET 4.14528 8.04674 8.04672
            CHANNELS 3 Zrotation Xrotation Yrotation
            End Site
            {
              OFFSET 1 0 0
            }
          }
          JOINT rightEye
          {
            OFFSET -3.6576 8.04674 8.04672
            CHANNELS 3 Zrotation Xrotation Yrotation
            End Site
            {
              OFFSET 1 0 0
            }
          }
        }
      }
      JOINT rCollar
      {
        OFFSET -2.68224 19.2634 -4.8768
        CHANNELS 3 Zrotation Xrotation Yrotation
        JOINT rShldr
        {
          OFFSET -8.77824 -1.95073 1.46304
          CHANNELS 3 Zrotation Xrotation Yrotation
          JOINT rForeArm
          {
            OFFSET -28.1742 -1.7115 0.48768
            CHANNELS 3 Zrotation Xrotation Yrotation
            JOINT rHand
            {
              OFFSET -22.5879 0.773209 7.07136
              CHANNELS 3 Zrotation Xrotation Yrotation
              JOINT rThumb1
              {
                OFFSET -1.2192 -0.487915 3.41376
                CHANNELS 3 Zrotation Xrotation Yrotation
                JOINT rThumb2
                {
                  OFFSET -3.37035 -0.52449 3.41376
                  CHANNELS 3 Zrotation Xrotation Yrotation
                  End Site
                  {
                    OFFSET -1.78271 -1.18214 1.43049
                  }
                }
              }
              JOINT rIndex1
              {
                OFFSET -7.75947 0.938293 5.60832
                CHANNELS 3 Zrotation Xrotation Yrotation
                JOINT rIndex2
                {
                  OFFSET -2.54057 -0.884171 1.56538
                  CHANNELS 3 Zrotation Xrotation Yrotation
                  End Site
                  {
                    OFFSET -1.62519 -0.234802 1.16502
                  }
                }
              }
              JOINT rMid1
              {
                OFFSET -8.24714 1.18213 3.41376
                CHANNELS 3 Zrotation Xrotation Yrotation
                JOINT rMid2
                {
                  OFFSET -3.10165 -0.590103 1.0647
                  CHANNELS 3 Zrotation Xrotation Yrotation
                  End Site
                  {
                    OFFSET -2.48547 -0.328903 0.83742
                  }
                }
              }
              JOINT rRing1
              {
                OFFSET -8.82822 0.546677 1.51678
                CHANNELS 3 Zrotation Xrotation Yrotation
                JOINT rRing2
                {
                  OFFSET -2.60934 -0.819778 -0.0198488
                  CHANNELS 3 Zrotation Xrotation Yrotation
                  End Site
                  {
                    OFFSET -2.33842 -0.294052 0.168128
                  }
                }
              }
              JOINT rPinky1
              {
                OFFSET -8.27202 -0.0477905 -0.4584
                CHANNELS 3 Zrotation Xrotation Yrotation
                JOINT rPinky2
                {
                  OFFSET -1.82734 -0.647385 -0.700984
                  CHANNELS 3 Zrotation Xrotation Yrotation
                  End Site
                  {
                    OFFSET -1.69225 -0.51767 -0.607171
                  }
                }
              }
            }
          }
        }
      }
      JOINT lCollar
      {
        OFFSET 2.68224 19.2634 -4.8768
        CHANNELS 3 Zrotation Xrotation Yrotation
        JOINT lShldr
        {
          OFFSET 8.77824 -1.95073 1.46304
          CHANNELS 3 Zrotation Xrotation Yrotation
          JOINT lForeArm
          {
            OFFSET 28.1742 -1.7115 0.48768
            CHANNELS 3 Zrotation Xrotation Yrotation
            JOINT lHand
            {
              OFFSET 22.5879 0.773209 7.07136
              CHANNELS 3 Zrotation Xrotation Yrotation
              JOINT lThumb1
              {
                OFFSET 1.2192 -0.487915 3.41376
                CHANNELS 3 Zrotation Xrotation Yrotation
                JOINT lThumb2
                {
                  OFFSET 3.37035 -0.52449 3.41376
                  CHANNELS 3 Zrotation Xrotation Yrotation
                  End Site
                  {
                    OFFSET 1.78271 -1.18214 1.43049
                  }
                }
              }
              JOINT lIndex1
              {
                OFFSET 7.75947 0.938293 5.60832
                CHANNELS 3 Zrotation Xrotation Yrotation
                JOINT lIndex2
                {
                  OFFSET 2.54057 -0.884171 1.56538
                  CHANNELS 3 Zrotation Xrotation Yrotation
                  End Site
                  {
                    OFFSET 1.62519 -0.234802 1.16502
                  }
                }
              }
              JOINT lMid1
              {
                OFFSET 8.24714 1.18213 3.41376
                CHANNELS 3 Zrotation Xrotation Yrotation
                JOINT lMid2
                {
                  OFFSET 3.10165 -0.590103 1.0647
                  CHANNELS 3 Zrotation Xrotation Yrotation
                  End Site
                  {
                    OFFSET 2.48547 -0.328903 0.83742
                  }
                }
              }
              JOINT lRing1
              {
                OFFSET 8.82822 0.546677 1.51678
                CHANNELS 3 Zrotation Xrotation Yrotation
                JOINT lRing2
                {
                  OFFSET 2.60934 -0.819778 -0.0198488
                  CHANNELS 3 Zrotation Xrotation Yrotation
                  End Site
                  {
                    OFFSET 2.33842 -0.294052 0.168128
                  }
                }
              }
              JOINT lPinky1
              {
                OFFSET 8.27202 -0.0477905 -0.4584
                CHANNELS 3 Zrotation Xrotation Yrotation
                JOINT lPinky2
                {
                  OFFSET 1.82734 -0.647385 -0.700984
                  CHANNELS 3 Zrotation Xrotation Yrotation
                  End Site
                  {
                    OFFSET 1.69225 -0.51767 -0.607171
                  }
                }
              }
            }
          }
        }
      }
    }
  }
  JOINT rButtock
  {
    OFFSET -8.77824 4.35084 1.2192
    CHANNELS 3 Zrotation Xrotation Yrotation
    JOINT rThigh
    {
      OFFSET 0 -1.70687 -2.19456
      CHANNELS 3 Zrotation Xrotation Yrotation
      JOINT rShin
      {
        OFFSET 0 -36.8199 0.73152
        CHANNELS 3 Zrotation Xrotation Yrotation
        JOINT rFoot
        {
          OFFSET 0.73152 -45.1104 -5.12064
          CHANNELS 3 Zrotation Xrotation Yrotation
          End Site
          {
            OFFSET -1.1221 -3.69964 12.103
          }
        }
      }
    }
  }
  JOINT lButtock
  {
    OFFSET 8.77824 4.35084 1.2192
    CHANNELS 3 Zrotation Xrotation Yrotation
    JOINT lThigh
    {
      OFFSET 0 -1.70687 -2.19456
      CHANNELS 3 Zrotation Xrotation Yrotation
      JOINT lShin
      {
        OFFSET 0 -36.8199 0.73152
        CHANNELS 3 Zrotation Xrotation Yrotation
        JOINT lFoot
        {
          OFFSET -0.73152 -45.1104 -5.12064
          CHANNELS 3 Zrotation Xrotation Yrotation
          End Site
          {
            OFFSET 1.1221 -3.69964 12.103
          }
        }
      }
    }
  }
}
MOTION
Frames:	6
Frame Time:	0.00833333
0.621014 82.4855 50.3262 0.0 0.0 0.0 -4.35903 0.00629528 -0.117465 -1.20168 0.032482 -0.207697 4.932e-14 1.59028e-15 -2.98177e-16 1.49918e-13 3.18055e-15 -1.04673e-15 -0.0 0.0 0.0 -0.0 0.0 0.0 2.47989e-14 1.80925e-16 9.93923e-17 5.2604e-13 4.19933e-15 -1.98785e-16 9.04008e-12 -2.57526e-12 -1.39944e-13 1.03625e-10 3.44703e-12 -4.35736e-13 2.44401e-10 1.88741e-12 -1.26268e-12 4.22068e-10 3.25689e-12 -2.16993e-12 2.44407e-10 1.88607e-12 -1.26268e-12 7.73091 5.47488 0.417314 2.444e-10 1.88686e-12 -1.25632e-12 2.90554 0.965183 0.102902 2.44407e-10 1.88756e-12 -1.25314e-12 10.2786 0.731801 0.0259123 2.44391e-10 1.89124e-12 -1.24042e-12 2.22167 -0.733487 -0.20892 2.45013e-14 1.90049e-16 -3.47873e-16 5.24648e-13 3.98191e-15 -1.78906e-15 9.0688e-12 2.83825e-12 -1.36764e-13 1.03602e-10 -1.97681e-12 -4.26194e-13 2.44425e-10 1.86642e-12 -1.25314e-12 4.2213e-10 3.22508e-12 -2.18345e-12 2.44424e-10 1.865e-12 -1.25314e-12 -7.73091 5.47488 -0.417314 2.44426e-10 1.86629e-12 -1.25632e-12 -2.90554 0.965183 -0.102902 2.44417e-10 1.86659e-12 -1.26109e-12 -10.2786 0.731801 -0.0259123 2.44434e-10 1.87096e-12 -1.27222e-12 -2.22167 -0.733487 0.20892 -2.03217e-16 0.0 -3.88251e-19 -2.89143 -1.94436 0.0304695 -0.00794956 -2.07875 -0.0648889 -0.419024 4.00219 0.126638 2.03217e-16 0.0 3.88251e-19 -3.72525 -11.2507 0.483787 -0.0143135 14.7726 -0.388801 0.544698 -3.54245 0.0125214
-1.484 82.3064 48.4592 -8.0437 -1.5807 8.5832 -2.28814 -2.98544 0.663322 -1.35877 -2.81529 -0.0885798 -1.46558 1.38558 -2.16086 2.45751 2.99747 -4.27521 -0.0 0.0 0.0 -0.0 0.0 0.0 -9.96685e-14 -1.65893e-13 5.94296e-15 23.2753 0.18512 -2.91549 -3.58011 -1.51732 5.70492 0.28745 11.9424 1.54976 -7.76146e-10 -3.04426e-11 1.19685e-09 -1.29663e-09 -1.06232e-10 2.09343e-09 -7.7614e-10 -3.04436e-11 1.19685e-09 7.73091 5.47488 0.417314 -7.76147e-10 -3.04437e-11 1.19685e-09 2.90554 0.965183 0.102902 -7.76141e-10 -3.04435e-11 1.19686e-09 10.2786 0.731801 0.0259123 -7.76154e-10 -3.04398e-11 1.19687e-09 2.22167 -0.733487 -0.20892 -9.98927e-14 -1.65882e-13 5.56714e-15 -24.0445 1.3308 3.19257 3.15736 -1.2732 -5.09291 -0.114829 7.53012 -1.02559 1.52525e-09 6.45462e-10 -4.93856e-10 2.62159e-09 1.09441e-09 -8.82583e-10 1.52525e-09 6.45461e-10 -4.93853e-10 -7.73091 5.47488 -0.417314 1.52524e-09 6.45459e-10 -4.93863e-10 -2.90554 0.965183 -0.102902 1.52524e-09 6.45462e-10 -4.93863e-10 -10.2786 0.731801 -0.0259123 1.52525e-09 6.45466e-10 -4.93872e-10 -2.22167 -0.733487 0.20892 -2.03217e-16 0.0 -3.88251e-19 -2.14809 -3.28232 7.31878 0.0089703 -1.90885 0.0684133 -0.944555 1.18333 -7.35155 2.03217e-16 0.0 3.88251e-19 -3.58678 -10.3804 -14.0627 0.0294143 14.6673 0.0167636 2.67697 -15.6773 16.2791
-1.61365 82.2904 48.2271 -8.5875 -1.7801 9.1264 0.00703765 -6.13418 1.49556 -1.5133 -5.8208 0.037404 -2.89896 2.83961 -4.44849 5.53555 6.10091 -8.82984 -0.0 0.0 0.0 -0.0 0.0 0.0 -2.38846e-13 -3.53066e-13 1.24271e-14 47.9019 0.371414 -5.99193 -7.04397 -3.07497 11.7582 -0.174426 24.5477 3.43051 -1.92654e-09 -6.57369e-11 2.55133e-09 -3.23389e-09 -2.27822e-10 4.46259e-09 -1.92653e-09 -6.57376e-11 2.55133e-09 7.73091 5.47488 0.417314 -1.92654e-09 -6.57387e-11 2.55133e-09 2.90554 0.965183 0.102902 -1.92653e-09 -6.5739e-11 2.55133e-09 10.2786 0.731801 0.0259123 -1.92654e-09 -6.57353e-11 2.55134e-09 2.22167 -0.733487 -0.20892 -2.3899e-13 -3.53053e-13 1.2129e-14 -49.6265 2.70302 6.56229 6.24978 -2.58543 -10.4844 0.0670665 15.4986 -2.17266 2.98242e-09 1.37626e-09 -1.05112e-09 5.12401e-09 2.33355e-09 -1.8786e-09 2.98242e-09 1.37626e-09 -1.05112e-09 -7.73091 5.47488 -0.417314 2.98241e-09 1.37626e-09 -1.05113e-09 -2.90554 0.965183 -0.102902 2.98241e-09 1.37626e-09 -1.05113e-09 -10.2786 0.731801 -0.0259123 2.98242e-09 1.37626e-09 -1.05114e-09 -2.22167 -0.733487 0.20892 -2.03217e-16 0.0 -3.88251e-19 -0.980817 -4.58369 15.0427 0.0260123 -1.72733 0.209189 -2.29061 -1.71319 -15.2537 2.03217e-16 0.0 3.88251e-19 -2.94062 -8.82179 -29.3158 0.0768762 14.5496 0.443688 12.5944 -24.8343 35.9506
-1.69114 82.2688 48.0367 -8.9703 -1.6598 9.5847 2.10068 -8.9627 2.24968 -1.63721 -8.51081 0.151644 -4.08325 4.13307 -6.49767 8.71548 8.79128 -12.9629 -0.0 0.0 0.0 -0.0 0.0 0.0 -3.48603e-13 -4.98041e-13 1.76301e-14 69.8821 0.549614 -8.74684 -9.84661 -4.37177 17.1602 -1.45373 35.7098 5.60492 -2.81724e-09 -9.51026e-11 3.59307e-09 -4.73404e-09 -3.25208e-10 6.28462e-09 -2.81723e-09 -9.5103e-11 3.59307e-09 7.73091 5.47488 0.417314 -2.81724e-09 -9.51048e-11 3.59307e-09 2.90554 0.965183 0.102902 -2.81724e-09 -9.51055e-11 3.59308e-09 10.2786 0.731801 0.0259123 -2.81724e-09 -9.51019e-11 3.59308e-09 2.22167 -0.733487 -0.20892 -3.48681e-13 -4.98027e-13 1.73972e-14 -72.5771 3.94282 9.59806 8.80079 -3.69906 -15.3076 0.520777 22.5602 -3.30327 4.08689e-09 1.93265e-09 -1.47906e-09 7.0205e-09 3.27678e-09 -2.64338e-09 4.08689e-09 1.93265e-09 -1.47905e-09 -7.73091 5.47488 -0.417314 4.08688e-09 1.93264e-09 -1.47908e-09 -2.90554 0.965183 -0.102902 4.08688e-09 1.93265e-09 -1.47907e-09 -10.2786 0.731801 -0.0259123 4.08689e-09 1.93265e-09 -1.47907e-09 -2.22167 -0.733487 0.20892 -2.03217e-16 0.0 -3.88251e-19 0.332348 -5.6033 21.9696 0.0404375 -1.56904 0.334944 -4.15341 -4.09337 -22.3627 2.03217e-16 0.0 3.88251e-19 -1.86455 -7.05496 -42.8337 0.121506 14.4547 0.826721 26.5744 -27.0712 55.1491
-1.702 82.2679 48.0193 -9.0125 -1.6901 9.6248 3.51694 -10.9966 2.78517 -1.70959 -10.4121 0.234293 -4.86427 5.04744 -7.93657 11.2113 10.6383 -15.9135 -0.0 0.0 0.0 -0.0 0.0 0.0 -3.84813e-13 -5.37521e-13 1.963e-14 85.2106 0.71244 -10.6977 -11.6271 -5.19044 20.8903 -3.0381 43.3731 7.63014 -3.05872e-09 -1.09646e-10 3.85298e-09 -5.14142e-09 -3.62084e-10 6.73882e-09 -3.05872e-09 -1.09647e-10 3.85298e-09 7.73091 5.47488 0.417314 -3.05872e-09 -1.09649e-10 3.85298e-09 2.90554 0.965183 0.102902 -3.05872e-09 -1.0965e-10 3.85298e-09 10.2786 0.731801 0.0259123 -3.05873e-09 -1.09646e-10 3.85299e-09 2.22167 -0.733487 -0.20892 -3.84857e-13 -5.37507e-13 1.94312e-14 -88.6505 4.8962 11.7812 10.4683 -4.43083 -18.6827 1.01748 27.3836 -4.17474 4.30962e-09 2.05302e-09 -1.58368e-09 7.40215e-09 3.48026e-09 -2.83009e-09 4.30962e-09 2.05302e-09 -1.58367e-09 -7.73091 5.47488 -0.417314 4.3096e-09 2.05301e-09 -1.58369e-09 -2.90554 0.965183 -0.102902 4.30961e-09 2.05302e-09 -1.58368e-09 -10.2786 0.731801 -0.0259123 4.30962e-09 2.05302e-09 -1.58369e-09 -2.22167 -0.733487 0.20892 -2.03217e-16 0.0 -3.88251e-19 1.33184 -6.22934 26.8434 0.0500345 -1.46887 0.423194 -5.80574 -5.5762 -27.3964 2.03217e-16 0.0 3.88251e-19 -0.884234 -5.71351 -52.2685 0.155405 14.4183 1.10094 37.2414 -24.6219 67.6786
-1.65121 82.2745 48.0077 -8.7571 -1.7616 9.7549 3.87238 -11.9392 2.99777 -1.7173 -11.22 0.271832 -5.17524 5.45735 -8.51045 12.3363 11.4414 -17.123 -0.0 0.0 0.0 -0.0 0.0 0.0 -3.03257e-13 -4.08733e-13 1.56069e-14 91.21 0.872335 -11.5312 -12.2344 -5.45327 22.2363 -3.84498 46.2229 8.56276 -2.2932e-09 -7.62504e-11 2.85903e-09 -3.85521e-09 -2.6089e-10 5.00044e-09 -2.29319e-09 -7.62506e-11 2.85903e-09 7.73091 5.47488 0.417314 -2.2932e-09 -7.62509e-11 2.85902e-09 2.90554 0.965183 0.102902 -2.29319e-09 -7.62521e-11 2.85903e-09 10.2786 0.731801 0.0259123 -2.2932e-09 -7.6249e-11 2.85904e-09 2.22167 -0.733487 -0.20892 -3.03326e-13 -4.0872e-13 1.53965e-14 -94.9646 5.51749 12.7771 11.1008 -4.70763 -20.0143 1.23828 29.0647 -4.50581 3.12559e-09 1.46321e-09 -1.21454e-09 5.36605e-09 2.47762e-09 -2.16733e-09 3.12558e-09 1.46321e-09 -1.21453e-09 -7.73091 5.47488 -0.417314 3.12557e-09 1.4632e-09 -1.21455e-09 -2.90554 0.965183 -0.102902 3.12558e-09 1.46321e-09 -1.21454e-09 -10.2786 0.731801 -0.0259123 3.12559e-09 1.46321e-09 -1.21455e-09 -2.22167 -0.733487 0.20892 -2.03217e-16 0.0 -3.88251e-19 1.59139 -6.51016 28.821 0.053629 -1.45241 0.459232 -6.53773 -6.10682 -29.4572 2.03217e-16 0.0 3.88251e-19 -0.646472 -5.22802 -56.1113 0.173345 14.4777 1.22657 41.5589 -22.8797 72.174
